<?xml version="1.0" encoding="utf-8"?>
<!-- Generator: Adobe Illustrator 15.1.0, SVG Export Plug-In . SVG Version: 6.00 Build 0)  -->
<!DOCTYPE svg PUBLIC "-//W3C//DTD SVG 1.1//EN" "http://www.w3.org/Graphics/SVG/1.1/DTD/svg11.dtd">
<svg version="1.1" id="Layer_1" xmlns="http://www.w3.org/2000/svg" xmlns:xlink="http://www.w3.org/1999/xlink" x="0px" y="0px"
	 width="315px" height="110px" viewBox="0 0 315 110" enable-background="new 0 0 315 110" xml:space="preserve">
<g>
	<g>
		<g>
			<line fill="none" stroke="#000000" stroke-miterlimit="10" x1="6.801" y1="30.451" x2="34.006" y2="30.451"/>
			<g>
				<polygon points="41.067,30.451 31.118,34.517 33.479,30.451 31.118,26.387 				"/>
			</g>
		</g>
	</g>
	<g>
		<g>
			<line fill="none" stroke="#000000" stroke-miterlimit="10" x1="66.941" y1="30.451" x2="105.335" y2="30.451"/>
			<g>
				<polygon points="112.396,30.451 102.446,34.517 104.807,30.451 102.446,26.387 				"/>
			</g>
		</g>
	</g>
	<g>
		<g>
			<line fill="none" stroke="#000000" stroke-miterlimit="10" x1="155.053" y1="30.451" x2="190.649" y2="30.451"/>
			<g>
				<polygon points="197.71,30.451 187.761,34.517 190.122,30.451 187.761,26.387 				"/>
			</g>
		</g>
	</g>
	<g>
		<g>
			<line fill="none" stroke="#000000" stroke-miterlimit="10" x1="240.367" y1="30.451" x2="301.139" y2="30.451"/>
			<g>
				<polygon points="308.199,30.451 298.25,34.517 300.61,30.451 298.25,26.387 				"/>
			</g>
		</g>
	</g>
	<g>
		<g>
			<polyline fill="none" stroke="#000000" stroke-miterlimit="10" points="54.004,50.449 54.004,88.78 155.053,88.78 274.283,88.78 
				274.283,30.451 			"/>
			<g>
				<polygon points="54.004,43.388 49.938,53.337 54.004,50.977 58.068,53.337 				"/>
			</g>
		</g>
	</g>
	<circle fill="#FFFFFF" stroke="#000000" stroke-miterlimit="10" cx="54.004" cy="30.451" r="12.937"/>
	<rect x="112.396" y="9.123" fill="#FFFFFF" stroke="#000000" stroke-miterlimit="10" width="42.657" height="42.657"/>
	<rect x="197.71" y="9.123" fill="#FFFFFF" stroke="#000000" stroke-miterlimit="10" width="42.657" height="42.657"/>
	<rect x="155.052" y="59.616" fill="#FFFFFF" stroke="#000000" stroke-miterlimit="10" width="42.658" height="42.657"/>
	<g>
		<text transform="matrix(1 0 0 1 7.1504 21.0107)" font-family="'LucidaBright'" font-size="16">r</text>
		<text transform="matrix(1 0 0 1 24.9829 21.0107)" font-family="'LucidaBright'" font-size="16">+</text>
	</g>
	<text transform="matrix(1 0 0 1 85.4302 21.0107)" font-family="'LucidaBright'" font-size="16">e</text>
	<text transform="matrix(1 0 0 1 171.3228 21.0107)" font-family="'LucidaBright'" font-size="16">u</text>
	<text transform="matrix(1 0 0 1 269.8672 21.0107)" font-family="'LucidaBright'" font-size="16">y</text>
	<text transform="matrix(1 0 0 1 128.1616 35.6558)" font-family="'LucidaBright'" font-size="16">C</text>
	<text transform="matrix(1 0 0 1 214.4561 35.6558)" font-family="'LucidaBright'" font-size="16">P</text>
	<text transform="matrix(1 0 0 1 171.9941 86.1484)" font-family="'LucidaBright'" font-size="16">F</text>
	<text transform="matrix(1 0 0 1 62.7451 59.6157)" font-family="'LucidaBright'" font-size="16">–</text>
</g>
</svg>
